<?xml version="1.0" encoding="utf-8"?>
<!-- Generator: Adobe Illustrator 25.4.1, SVG Export Plug-In . SVG Version: 6.00 Build 0)  -->
<svg version="1.1" id="Layer_1" xmlns="http://www.w3.org/2000/svg" xmlns:xlink="http://www.w3.org/1999/xlink" x="0px" y="0px"
	 viewBox="0 0 1920 1080" style="enable-background:new 0 0 1920 1080;" xml:space="preserve">
<style type="text/css">
	.st0{fill:#EBF3FA;}
	.st1{fill:#D5E5FB;}
	.st2{fill:#B7D3F3;}
	.st3{fill:#D2E3FC;}
	.st4{fill:#C5DCF8;}
	.st5{fill:#FFB27D;}
	.st6{fill:#1C468A;}
	.st7{fill:#163560;}
	.st8{fill:#B5453C;}
	.st9{fill:#ED975D;}
	.st10{fill:#FFFFFF;}
	.st11{fill:#ED7D2B;}
	.st12{fill:#F99746;}
	.st13{fill:#F9DDBF;}
	.st14{fill:#ED893E;}
	.st15{fill:#95C0F4;}
	.st16{fill:#78ACEA;}
	.st17{fill:#2E3552;}
	.st18{fill:#AEC3FF;}
	.st19{fill:#A02E2E;}
	.st20{fill:#BC3F3F;}
	.st21{fill:#9DB0F4;}
	.st22{fill:#233862;}
	.st23{fill:#2B478B;}
	.st24{fill:#E2915A;}
	.st25{fill:#2A4E96;}
	.st26{fill:#DCEAFF;}
	.st27{fill:#ED985F;}
	.st28{fill:#2C3A64;}
</style>
<g>
	<g>
		<path class="st0" d="M325.9,976.23c0,0-225.45-239.59-67.36-463.09c58.99-83.4,209.58-130.23,348.02-92.23
			c81.77,22.44,205.78,19.13,326.95-178.67c165.24-269.75,851.2-147.09,717.31,325.52c-56.4,199.08,153.82,208.14,49.69,408.9
			L325.9,976.23z"/>
		<g>
			<g>
				<path class="st1" d="M1546.43,496.26l-491.07,410.82l-258.37-220.1c-48.36,42.58-123.04,108.31-198.18,174.27
					c-51.35,45.08-92.92,81.5-126.61,110.97l-234.67-0.27c65.08-55.41,327.1-285.66,503.62-441.27l53.98-47.58l261.18,222.5
					l383.36-320.72L1546.43,496.26z"/>
			</g>
			<polygon class="st1" points="1377.51,334.37 1611.38,568.96 1677.45,300.97 			"/>
		</g>
		<g>
			<g>
				<g>
					<path class="st2" d="M610.81,828.67c-0.87-21.48-2.76-40.17-5.01-53.2c-3.59-20.77-6.83-32.72-6.86-32.85
						c-0.47-1.83-7.31-9.22-22.51-8.99c-15.2,0.23-13.76,9.92-13.76,9.92l0,0c0,0.33,0.04,0.63,0.11,0.86
						c0.15,0.5,14.1,51.09,13.49,116.4c-0.01,0.92-0.11,2.5-0.05,3.56c0,0.01,35.22,0.91,35.23,0
						C612.69,858.66,612.09,842.85,610.81,828.67z"/>
					<path class="st3" d="M615.24,860.49c-0.01,0.91-0.49,1.64-1.08,1.64h-0.01c-0.59-0.01-1.05-0.74-1.06-1.64H582.9
						c-0.01,0.91-0.49,1.64-1.08,1.64h-0.01c-0.6-0.01-1.07-0.77-1.06-1.69c0.18-18.7-0.89-36.16-2.5-51.57
						c-4.01-38.43-11.43-64.11-11.54-64.47c-0.07-0.23-0.11-0.53-0.11-0.86c0,0-1.44-9.69,13.76-9.92
						c15.2-0.23,22.04,7.16,22.51,8.99c0.03,0.1,1.86,6.86,4.29,19.03c0.81,4.03,1.68,8.65,2.57,13.82
						c2.25,13.03,4.14,31.72,5.01,53.2C616.02,842.85,616.47,854.79,615.24,860.49z"/>
					<path class="st4" d="M578.52,862.13h118.34c0,0-2.76-11.15-71.29-9.49C577.07,853.82,578.52,862.13,578.52,862.13z"/>
					<g>
						<path class="st2" d="M568.89,978.62c13.72-69.46,10.19-112.09,10.18-112.62c-0.03-1.07,1.94-2.04,3-2.08
							c1.07-0.02,5.81-0.32,6.36,0.6c0.72,1.2,3.48,53.72-16.97,114.1H568.89z"/>
					</g>
					<g>
						<path class="st2" d="M679.38,978.62c-13.72-69.46-10.19-112.09-10.18-112.62c0.03-1.07-1.94-2.04-3-2.08
							c-1.07-0.02-5.81-0.32-6.36,0.6c-0.72,1.2-3.48,53.72,16.97,114.1H679.38z"/>
					</g>
					<g>
						<path class="st2" d="M701.28,978.62C687.56,909.16,691.09,866.53,691.1,866c0.03-1.07-1.94-2.04-3-2.08
							c-1.07-0.02-5.81-0.32-6.36,0.6c-0.72,1.2-3.48,53.72,16.97,114.1H701.28z"/>
					</g>
					<g>
						<path class="st2" d="M590.93,978.62c13.72-69.46,10.19-112.09,10.18-112.62c-0.03-1.07,1.94-2.04,3-2.08
							c1.07-0.02,5.81-0.32,6.36,0.6c0.72,1.2,3.48,53.72-16.97,114.1H590.93z"/>
					</g>
					<path class="st2" d="M696.58,865.69H578.94c-1.53,0-2.78-1.25-2.78-2.78v-0.89c0-1.53,1.25-2.78,2.78-2.78h117.63
						c1.53,0,2.78,1.25,2.78,2.78v0.89C699.35,864.44,698.11,865.69,696.58,865.69z"/>
					<g>
						<path class="st5" d="M692.77,758.82l39.34-8.52l2.32,5.65c0,0-43.4,25.83-47.47,24.56
							C682.89,779.24,692.77,758.82,692.77,758.82z"/>
						<path class="st5" d="M657.01,936.73c-0.99,1.13-1.11,2.39-0.62,3.74c0,0.01,0,0.01,0.01,0.02c0.9,2.49,3.88,5.27,7.34,8.05
							c0.44,0.36,0.84,0.68,1.18,0.98c0.09,0.08,0.18,0.16,0.26,0.24c0.07,0.06,0.14,0.13,0.2,0.18c3.23,2.97,2.01,3.66,7.81,9.69
							c6.61,6.88,11.16,7,12.46,6.38c1.1-0.53-1.13-4.18-3.6-8.28c-0.12-0.2-0.24-0.4-0.36-0.6c-0.33-0.55-0.65-1.1-0.98-1.65
							c-2.89-4.93-2.15-7.25-1.46-14.59c0.56-5.97,9.28-33.34,9.28-33.34l-12.67-2.18c0,0-3.81,21.8-8.02,25.15
							c-2.25,1.79-4.76,1.81-6.92,3.14c-0.15,0.09-0.3,0.19-0.45,0.28C659.25,934.76,658,935.6,657.01,936.73z"/>
						<path class="st6" d="M657.01,936.73c-0.99,1.13-1.11,2.39-0.62,3.74c0,0.01,0,0.01,0.01,0.02c1.1,2.49,4.01,5.26,7.35,8.03
							c0.44,0.36,0.82,0.7,1.17,1.01c0.09,0.08,0.18,0.16,0.26,0.24c0.07,0.06,0.14,0.13,0.2,0.18c3.23,2.97,2.01,3.66,7.81,9.69
							c6.61,6.88,11.16,7,12.46,6.38c1.1-0.53-1.13-4.18-3.6-8.28c-1.29-0.47-7.26-2.9-11.78-8.68c-3.98-5.08-6.64-11.61-9.35-15.39
							c-0.15,0.09-0.3,0.19-0.45,0.28C659.25,934.76,658,935.6,657.01,936.73z"/>
						<path class="st5" d="M759.15,928.82c0.78,3.91,6.36,3.26,12.58,1.74c6.23-1.52,4.75,0.29,13.61-0.69
							c8.86-0.98,11.55-4.29,11.82-5.6c0.24-1.17-4.14-1.58-8.83-2.12c-0.59-0.07-1.18-0.14-1.78-0.21c-5.3-0.67-9.19-4.09-14-6.9
							c-4.56-2.66-11.37-13.51-11.37-13.51l-12.15,0.96c0,0,6.38,9.69,8.84,13.9c1.45,2.48,1.37,5.75,1.19,8.28
							C758.97,926.03,758.88,927.44,759.15,928.82z"/>
						<path class="st6" d="M771.74,930.55c6.23-1.52,4.75,0.29,13.61-0.69c8.86-0.98,11.55-4.29,11.82-5.6
							c0.24-1.17-4.14-1.58-8.83-2.12l-0.04,0.09c0,0-5.32,3.77-12.69,3.95c-6.01,0.15-12.38-1.58-16.53-1.51
							c-0.09,1.37-0.18,2.78,0.09,4.16C759.94,932.73,765.51,932.07,771.74,930.55z"/>
						<path class="st5" d="M732.11,750.3c0,0,2.9-7.09,6.08-7.38c3.19-0.29,13.32-1.88,14.04-0.43c0.72,1.45,0,6.66-2.17,8.54
							c-2.17,1.88-15.64,4.92-15.64,4.92L732.11,750.3z"/>
						<path class="st7" d="M712.58,851.1l-26.19,70.49c0,0-4.02,0.39-7.88-0.72c-3.55-1.02-7.62-3.71-7.62-3.71
							s6.5-67.69,18.41-81.77C701.2,821.31,712.58,851.1,712.58,851.1z"/>
						<path class="st6" d="M608.97,822.58c0,0,75.27-25.45,92.05-20.04c16.79,5.42,67.19,105.69,67.19,105.69s-1.14,1.51-4.24,2.68
							c-2.89,1.08-9.88,1.01-9.88,1.01s-45.49-38.99-50.9-50.36c-5.42-11.37-7.58-22.2-13-21.12c-5.42,1.08-69.85,26.53-84.47,11.37
							c-14.62-15.16-10.8-34.86-10.8-34.86L608.97,822.58z"/>
						<path class="st8" d="M651.88,643.11c-3.25-1.85-7.15-2.05-9.88-1.89c0.7-0.72,2.08-0.99,2.08-0.99
							c-1.69-0.25-5.47,1.43-5.47,1.43c-23.52-9.06-27.22,25.57-26.73,33.62c0.49,8.05,0.55,17.31-11.19,24.53
							c-23.11,14.2-3.61,38.99-3.61,38.99c0.18,0.11,10.75,18.03,10.75,18.03c-0.59-6.5,29.41-40.82,45.06-51.1
							c3.81-5.61,5.16-15.52,5.27-16.3c-0.66,7.86-2,12.27-3.2,14.75C668.22,691.98,660.5,648.02,651.88,643.11z"/>
						<path class="st5" d="M651.98,706.24c0.08,0.04-7.56,4-13.3,2.43c-5.4-1.47-8.93-8.48-8.86-8.49c2.29-0.45,2.95-3.6,2.9-17.11
							l1.03,0.2l17.39,3.44c0,0-0.4,5.47-0.41,10.63C650.72,701.68,650.99,705.78,651.98,706.24z"/>
						<path class="st9" d="M651.14,686.72c0,0-0.4,5.47-0.41,10.63c-9.73-0.27-14.88-9.15-16.99-14.07L651.14,686.72z"/>
						<path class="st8" d="M631.95,681.38c0,0-5.1-8.06-6.32-14.95c-0.87-4.92,1.63-23.16,19.96-20.53c0,0,5.32,0.52,10.33,3.9
							c3.98,2.69,9.72,8.49,3.3,24.4l-1.67,5.38L631.95,681.38z"/>
						<path class="st5" d="M654.39,691.6c0,0-23.03,0.38-23.04-13.96c-0.02-14.34-3-23.96,11.7-24.8
							c14.7-0.85,17.56,4.62,18.73,9.41C662.96,667.03,660.38,691.13,654.39,691.6z"/>
						<path class="st8" d="M653.54,652.48c0,0-6.3,16.83-15.98,19.32c-9.68,2.49-13.87-0.1-13.87-0.1s7.42-5.9,8.96-16.19
							C632.65,655.5,648.78,644.47,653.54,652.48z"/>
						<path class="st8" d="M651.98,653.85c0,0,4.71,3.76,5.86,7.41c1.15,3.65,1.66,11.17,3.86,10.92c0,0,4.75-11.44-0.59-17.91
							C655.44,647.4,651.98,653.85,651.98,653.85z"/>
						<path class="st6" d="M600.7,768.19c-2.27-9.52,5.46-28,13.52-43.3c7.32-13.87,14.91-25.12,15.6-24.71
							c19.3,11.46,21.04,1.93,21.04,1.93l0,0c0.01,0,17.53,2.33,22.5,10.87c6.16,10.6,12.81,40.23,19.42,45.84
							c-1.01,3.1-0.58,4.76,0.5,8.61c0.23,0.83,0.48,1.61,0.76,2.35c1,2.71,2.24,4.9,3.32,6.81c-3.36,2.04-9.84,5.92-14.62,3.13
							c-7.29-4.26-12.97-17.24-16.17-22.41c-0.01-0.02-0.02-0.04-0.04-0.06c-6.95,39.36,2.5,48.32-2.28,52.47
							c-5.05,4.38-12.27-2.09-28.16,4.8c-10.42,4.52-24.88,11.05-34.61,12.19c-5.1,0.6-8.91-0.29-10.16-3.74
							C587.7,812.96,605.03,786.35,600.7,768.19z"/>
						<path class="st10" d="M649.27,682.9c0,0,0.43,1.82,4.96,1.54c0,0,3.81-0.24,3.69-2.24
							C657.93,682.21,654.23,680.78,649.27,682.9z"/>
						<path class="st7" d="M591.31,822.98c1.24,3.45,5.05,4.34,10.16,3.74c6.74-2.93,35.84-14.21,35.51-21.85
							c-0.48-11.31-5.6-11.67-1.99-25.63c2.9-11.21-23.99-32.05-28.28-36.58c-8.07,15.3-8.29,16.02-6.02,25.55
							C605.03,786.35,587.7,812.96,591.31,822.98z"/>
						<path class="st6" d="M588.02,782.18c5.16-7.25,10.54-11.08,14.07-13.01c-0.81-2.1,21.71-29.71,21.71-33.99
							c0-4.33,6.01-35.01,6.01-35.01s-18.77,1.16-25.26,10.22C596.43,721.73,579.55,765.34,588.02,782.18z"/>
						<path class="st5" d="M602.1,769.18l37.5,9.79l-3.52,6.32c0,0-45.64-0.32-48.06-3.1C585.61,779.4,602.1,769.18,602.1,769.18z"
							/>
						<path class="st7" d="M666.56,757.31c3.2,5.17,8.88,18.15,16.17,22.41c4.78,2.79,11.26-1.09,14.62-3.13
							c-1.08-1.91-2.32-4.1-3.32-6.81c-2.68,0.61-5.95,1.4-8.06,2.03C681.87,773.05,666.56,757.31,666.56,757.31z"/>
						<path class="st5" d="M639.6,778.96c0,0,11.78-3.33,14.58-2.55c2.81,0.78,12.42,7.14,11.07,8.87
							c-1.35,1.73-9.82-1.03-13.71-0.51c-3.9,0.52-6.91,2.45-9.71,2.03c-2.81-0.42-5.74-1.52-5.74-1.52L639.6,778.96z"/>
						<path class="st5" d="M639.6,778.96c0,0,5.76-2.96,7.4-4.64c0.21-0.21,0.56-0.17,0.72,0.08c0.44,0.69,0.85,2.03-1.17,3.36
							C643.64,779.67,639.6,778.96,639.6,778.96z"/>
					</g>
				</g>
				<g>
					<path class="st11" d="M694.02,795.53h-54.94l0,0c0-2.42,1.96-4.38,4.38-4.38h50.56V795.53z"/>
					<polygon class="st11" points="693.87,735.69 778.81,735.69 758.44,795.53 672.94,795.53 					"/>
					<polygon class="st12" points="780.06,735.69 759.69,795.53 674.19,795.53 695.12,735.69 					"/>
					<path class="st13" d="M734.27,765.06c-0.53,2.29-2.81,4.14-5.1,4.14c-2.29,0-3.71-1.85-3.18-4.14c0.53-2.29,2.81-4.14,5.1-4.14
						C733.37,760.92,734.79,762.77,734.27,765.06z"/>
					<path class="st14" d="M780.06,735.69l-20.38,59.84h-56.62c37.51-12.8,47.49-51.83,49.16-59.84H780.06z"/>
				</g>
			</g>
			<g>
				<g>
					<g>
						<path class="st15" d="M533.45,978.62c1.07,0,1.99-0.75,2.18-1.79l10.67-60.47l15.35-86.97l4.29-24.32l-10.93-0.31l-1.9,14.12
							l-13.32,99.22l-7.89,58.81C531.78,977.81,532.51,978.62,533.45,978.62z"/>
					</g>
					<path class="st16" d="M553.11,818.87c7.08,3.12,8.54,10.51,8.54,10.51l4.29-24.32l-10.93-0.31L553.11,818.87z"/>
				</g>
				<g>
					<g>
						<path class="st15" d="M805.32,978.62c-1.07,0-1.99-0.75-2.18-1.79l-10.67-60.47l-15.35-86.97l-4.29-24.32l10.93-0.31
							l1.9,14.12l13.32,99.22l7.89,58.81C807,977.81,806.27,978.62,805.32,978.62z"/>
					</g>
					<path class="st16" d="M785.67,818.87c-7.08,3.12-8.54,10.51-8.54,10.51l-4.29-24.32l10.93-0.31L785.67,818.87z"/>
				</g>
				<path class="st16" d="M527.73,814.61H804.5c4.53,0,8.23-3.7,8.23-8.23v-2.63c0-4.53-3.71-8.23-8.23-8.23H527.73
					c-4.53,0-8.23,3.7-8.23,8.23v2.63C519.49,810.91,523.2,814.61,527.73,814.61z"/>
			</g>
		</g>
		<path class="st17" d="M1782.83,978.04H137.17c-1.04,0-1.89-0.85-1.89-1.89v-0.6c0-1.04,0.85-1.89,1.89-1.89h1645.65
			c1.04,0,1.89,0.85,1.89,1.89v0.6C1784.71,977.19,1783.86,978.04,1782.83,978.04z"/>
		<g>
			<path class="st5" d="M1221.42,785.34c0,0-7.26,9.01-4.99,10.24c2.27,1.23,8.27,3.53,9.68,2.08c1.41-1.45,1.86-12.06,1.86-12.06
				L1221.42,785.34z"/>
			<path class="st5" d="M1221.72,785.49c0,0-2.97,1.03-4.14,2.57c-1.17,1.54-3.75,3.9-3.12,4.55c0.63,0.65,4.34-2.23,4.34-2.23
				L1221.72,785.49z"/>
			<path class="st18" d="M1248.87,665.08c0,0-8.18,76.19-8.91,78.36c-0.16,0.47-0.8,2.88-1.7,6.35c-1.29,4.96-3.11,12.08-4.84,18.85
				c-2.6,10.23-4.99,19.67-4.99,19.67l-7.1-2.34c0,0-0.37-37.03,1.46-45.55c1.83-8.53,7.67-60.91,10.63-67.96
				C1236.35,665.41,1248.87,665.08,1248.87,665.08z"/>
			<g>
				<path class="st19" d="M1231.85,847.79l-44.64-11.71c-5.81-1.52-9.32-7.52-7.79-13.33l5.07-19.34c1.52-5.81,7.52-9.32,13.33-7.79
					l44.64,11.71c5.81,1.52,9.32,7.52,7.79,13.33l-5.07,19.34C1243.66,845.8,1237.66,849.31,1231.85,847.79z"/>
				<path class="st20" d="M1190.38,804.93l-5.13,19.57c-0.99,3.79,0.14,7.66,2.66,10.32c0.83,0.88,1.82,1.64,2.93,2.21c0,0,0,0,0,0
					l0,0c0.69,0.36,1.43,0.65,2.22,0.85l44.56,11.68c5.83,1.53,11.85-1.99,13.38-7.82l5.13-19.57c1.53-5.83-1.99-11.85-7.82-13.38
					l-15.34-4.02l1.1-4.17c0.51-1.93-0.65-3.91-2.58-4.41l-1.68-0.44l-9.33-2.45l-2.32-0.61c-0.93-0.24-1.91-0.11-2.74,0.38
					c-0.84,0.49-1.43,1.27-1.67,2.2l-1.1,4.17l-8.89-2.33c-0.35-0.09-0.7-0.16-1.05-0.22c0,0-0.01,0-0.01,0l0,0
					c-3.57-0.57-7.11,0.7-9.54,3.16l0,0C1191.86,801.37,1190.88,803.03,1190.38,804.93z M1230.79,804.2l-15.94-4.18l1.1-4.17
					c0.19-0.72,0.93-1.15,1.65-0.96l4,1.05l7.35,1.92l1.98,0.52c0.14,0.04,0.26,0.09,0.37,0.16c0.49,0.3,0.74,0.9,0.59,1.49
					L1230.79,804.2z"/>
			</g>
			<path class="st5" d="M1225.66,797.85c0,0,1.98-3.34,1.24-4.5c-0.74-1.17-3.42,3.46-3.42,3.46s1.83-3.97,1.14-4.63
				c-0.68-0.65-3.48,3.91-3.48,3.91s1.74-3.86,1.13-3.99c-0.61-0.13-2.69,3.24-2.69,3.24s1.08-2.89,0.09-2.75
				c-0.98,0.14-3.12,2.77-3.12,2.77L1225.66,797.85z"/>
			<path class="st21" d="M1238.25,749.8c-1.29,4.96-3.11,12.08-4.84,18.85c-1.11-3.13-2.53-8.11-3.42-14.94
				c-1.65-12.61,3.41-39.47,3.41-39.47L1238.25,749.8z"/>
			<path class="st5" d="M1331.88,782.21c0,0,7.91,6.43,8.89,8.44c0.98,2.01,3.44,9.44,3.31,11.84c-0.13,2.4-6.06-5.48-7.81-6.12
				s1.82,3.23,1.42,4.07c-0.4,0.83-4.11-1.88-5.53-2.77c-1.42-0.89-2.41-6.9-4.52-10.17
				C1325.53,784.22,1331.88,782.21,1331.88,782.21z"/>
			<path class="st22" d="M1228.04,974.69h39.45c2.83-1.92-0.76-20.66-0.76-20.66s-10.77-4.09-12.63,4.22
				c-1.87,8.3-13.72,10.94-19.99,11.96C1229.83,970.9,1228.47,973.26,1228.04,974.69z"/>
			<path class="st22" d="M1286.55,974.69h39.45c2.83-1.92-0.76-20.66-0.76-20.66s-10.77-4.09-12.63,4.22
				c-1.87,8.3-13.72,10.94-19.99,11.96C1288.34,970.9,1286.98,973.26,1286.55,974.69z"/>
			<path class="st23" d="M1238.66,783.48c0,0,1.77,22.13,3.86,48.72c2.83,36.13,10.47,125.7,10.47,125.7s5.01,4.27,16.1,1.94
				c0,0,9.44-30.9,12.27-66.17c0.04-0.58,0.09-1.16,0.13-1.74c2.63-35.9,6.71-111.51,6.71-111.51L1238.66,783.48z"/>
			<path class="st22" d="M1238.05,775.84c0,0,2.38,29.77,4.46,56.37l38.85,61.47c0.04-0.58,0.09-1.16,0.13-1.74
				c2.63-35.9,6.71-111.51,6.71-111.51L1238.05,775.84z"/>
			<path class="st23" d="M1249.37,775.84c0,0,28.17,70.13,37.18,96.72c6.42,18.94,24.51,85.37,24.51,85.37s7.87,2.39,14.48-2.23
				c0,0,6.73-67.87-6.87-87.01c-7.21-10.15-1.79-105.54-31.04-106.36C1258.39,761.51,1249.37,775.84,1249.37,775.84z"/>
			<path class="st18" d="M1303.06,782.21c-11.75,6.63-62.08,6.48-64.41,1.28c-5.21-11.62-6.51-70.65-4.06-88.75
				c0,0,1.27-27.83,4.06-26.6c18.59-8.54,48.68-0.78,48.68-0.78c8.11,2.39,7.42,20.93,9.68,46.96c0.29,3.36,0.61,6.85,0.98,10.46
				c1.6,16.08,3.93,34.55,7.47,54.03C1305.7,780.09,1304.81,781.23,1303.06,782.21z"/>
			<path class="st5" d="M1273.43,664.22c-0.31,4.98-6.8,4.41-14.61,2.63c-7.8-1.78-4.98-6.38-4.98-6.38s0.12-3.54,0.61-7.77
				c0.18-1.54,0.41-3.18,0.7-4.77c0.14-0.78,0.29-1.55,0.47-2.29c1.02-4.38,15.59-0.15,15.49,1.03
				C1270.82,649.84,1273.13,660.31,1273.43,664.22z"/>
			<polygon class="st22" points="1256.7,672.9 1256.09,666.03 1264.73,667.66 1261.4,673.8 			"/>
			<path class="st21" d="M1254.03,657.23l-5.16,7.85c0,0,0,4.83,4.48,8.33l7.06-6.57C1260.41,666.84,1255.84,665.1,1254.03,657.23z"
				/>
			<path class="st21" d="M1260.41,666.84c0,0,1.46,5.25,4.29,7.66c0,0,11.02-2.96,13.65-8.61l-5.74-7.41
				C1272.61,658.48,1272.33,664.09,1260.41,666.84z"/>
			<path class="st24" d="M1271.19,649.14c0,0-7.02,4.67-16.74,3.56c0.18-1.54,0.41-3.18,0.7-4.77c1.92-0.47,3.53-0.76,3.53-0.76
				L1271.19,649.14z"/>
			<path class="st5" d="M1275.64,643.84c-3.43,9.44-15.94,7.03-21.27,5.51c-1.5-0.42-2.43-0.78-2.43-0.78
				c-1.65-0.75-2.16-3.62-2.01-7.25c0.28-7.18,3.12-17.33,4.75-19.77c2.45-3.68,6.53-7.42,18.67-2.21
				C1285.5,624.55,1280.04,631.74,1275.64,643.84z"/>
			<path class="st22" d="M1285.02,638.99c-3.83,3.12-12.06,8.91-12.06,8.91s0.92-1.08,2.04-4.2c0.13-0.35,0.17-0.87,0.15-1.42
				c-0.05-1.53,0.32-3.06,1.12-4.36c0.5-0.81,0.68-1.66,0.05-2.26c-1.04-0.98-2.82-0.08-3.98,0.72c-0.77,0.53-1.78,0.56-2.57,0.07
				c-0.01,0-0.01-0.01-0.02-0.01c-3.27-2.05,0.34-5.66-2.32-8.66c-2.66-3-14.18-3.41-13.72-5.29c-3.93-2.22-1.45-10.42-1.38-10.85
				c0,0,5.64,0.5,12.69-1.26c5.72-1.44,12.02,2.24,14.02,3.75c0-0.36-0.06-0.87-0.32-1.4c0,0,0.87,0.86,0.85,1.85
				c0.09,0.09,0.13,0.15,0.1,0.16c0,0,1.14-0.02,1.8,0.42c0,0-0.49-0.15-0.72,0.14c-0.03,0.03-0.06,0.05-0.1,0.08
				C1288.31,620.77,1288.2,636.39,1285.02,638.99z"/>
			<path class="st10" d="M1257.55,642.47c0,0-0.62,1.19-3.71,0.2c0,0-2.6-0.83-2.17-2.2
				C1251.67,640.48,1254.48,640.14,1257.55,642.47z"/>
			<path class="st25" d="M1256.7,672.9c0,0-6.89,87.11-6.8,94.37c0.1,7.26,7.64,14.93,7.64,14.93s6.01-6.58,7.18-13.52
				c1.17-6.94-3.32-94.89-3.32-94.89L1256.7,672.9z"/>
			<path class="st18" d="M1287.34,667.35c0,0,11.13,2.66,19.93,19.56c8.8,16.9,15.75,50.98,19.95,59.98c4.2,9,7.08,37.33,7.08,37.33
				l-6.65,3.26c0,0-16.06-29.04-18.43-38.56c-1.29-5.15-20.92-46.39-20.92-46.39L1287.34,667.35z"/>
			<path class="st21" d="M1303.06,782.21c-0.01,0-0.01,0-0.01,0c-20.95-3.02-14.95-72.36-13.3-72.64
				c1.64-0.27,7.67,12.39,7.67,12.39l0.58,2.81c1.6,16.08,3.93,34.55,7.47,54.03C1305.7,780.09,1304.81,781.23,1303.06,782.21z"/>
		</g>
		<g>
			<g>
				<path class="st22" d="M1564.49,933.7c0,0,8.72,7.96,7.02,13.62c-1.7,5.66-9.58,9.43-10.64,16.34
					c-1.06,6.91-5.32,10.69-9.15,10.69c-3.83,0-18.26,0-18.26,0s-2.82-4.87,3.99-6.33c6.81-1.47,9.38-9.59,8.95-17.13
					c-0.43-7.54,0.64-17.6,0.64-17.6l14.47-3.35L1564.49,933.7z"/>
				<path class="st22" d="M1457.46,954.29c0,0,1.57,18.12-2.26,20.01l-49.02-0.1c0,0,0-5.66,7.87-6.91
					c7.87-1.26,21.7-5.87,24.04-16.13C1440.44,940.88,1457.46,954.29,1457.46,954.29z"/>
				<path class="st25" d="M1416.08,698.34c0,0,2.59,31.76,5.62,69.94c4.13,51.86,9.1,115.57,9.59,127.64
					c0.85,20.96,4.26,54.48,4.26,54.48s8.08,7.96,24.26,4.61c0,0,14.41-47.85,18.53-98.48c0.06-0.83,0.13-1.67,0.19-2.5
					c3.83-51.54,9.79-160.08,9.79-160.08L1416.08,698.34z"/>
				<path class="st22" d="M1416.08,698.34c0,0,2.59,31.76,5.62,69.94l56.63,88.24c0.06-0.83,0.13-1.67,0.19-2.5
					c3.83-51.54,9.79-160.08,9.79-160.08L1416.08,698.34z"/>
				<path class="st25" d="M1427.88,702.11c0,0,46.6,115.03,77.24,169.08c30.64,54.06,40.22,69.14,40.22,69.14
					s17.55-6.91,19.15-11.63c0,0-11.72-104.36-32.24-129.8c-11.59-14.37-21.6-46.27-21.09-61.36c0.86-26.03-8.91-56.18-8.91-56.18
					L1427.88,702.11z"/>
			</g>
			<path class="st5" d="M1390.67,703.8c0,0-8.7,11.78-9.34,14.93c-0.64,3.14-1.39,14.37-0.35,17.66c1.04,3.29,6.47-9.81,8.66-11.31
				c2.2-1.51-1.37,5.15-0.52,6.17c0.86,1.01,5.05-4.09,6.7-5.84c1.65-1.74,0.88-10.46,2.64-15.77
				C1400.22,704.32,1390.67,703.8,1390.67,703.8z"/>
			<path class="st10" d="M1429.04,532.59c0,0-11.76,109.45-12.81,112.57c-0.23,0.68-1.15,4.14-2.45,9.13
				c-1.85,7.12-4.47,17.35-6.95,27.08c-3.74,14.7-7.78,27.4-7.78,27.4s-1.78,1.15-6.06,0.78c-2.92-0.25-4.5-2.74-4.5-2.74
				s0.43-53.74,3.05-65.99c2.63-12.25,11.03-87.5,15.27-97.63C1411.06,533.06,1429.04,532.59,1429.04,532.59z"/>
			<path class="st26" d="M1413.79,654.29c-1.85,7.12-4.47,17.35-6.95,27.08c-1.6-4.5-3.63-11.66-4.91-21.47
				c-2.36-18.11,4.9-56.7,4.9-56.7L1413.79,654.29z"/>
			<path class="st10" d="M1506.9,700.85c-16.88,9.52-89.18,9.31-92.53,1.84c-7.48-16.69-9.36-101.49-5.83-127.5
				c0,0,1.83-39.98,5.83-38.21c26.71-12.27,69.93-1.13,69.93-1.13c11.66,3.43,10.65,30.07,13.91,67.47
				c0.42,4.82,0.88,9.84,1.4,15.03c2.3,23.1,5.65,49.63,10.73,77.62C1510.69,697.81,1509.4,699.44,1506.9,700.85z"/>
			<path class="st5" d="M1464.33,531.34c-0.45,7.15-9.77,6.34-20.99,3.78c-11.21-2.55-7.15-9.17-7.15-9.17s0.17-5.08,0.87-11.17
				c0.26-2.21,0.58-4.57,1.01-6.85c0.2-1.12,0.42-2.22,0.67-3.28c1.47-6.29,22.4-0.22,22.25,1.47
				C1460.58,510.7,1463.89,525.73,1464.33,531.34z"/>
			<polygon class="st22" points="1440.3,543.82 1439.41,533.95 1451.83,536.29 1447.05,545.11 			"/>
			<path class="st26" d="M1436.46,521.31l-7.42,11.28c0,0,0,6.94,6.44,11.97l10.14-9.44
				C1445.62,535.12,1439.06,532.62,1436.46,521.31z"/>
			<path class="st26" d="M1445.62,535.12c0,0,2.1,7.54,6.16,11c0,0,15.84-4.26,19.61-12.37l-8.25-10.65
				C1463.14,523.1,1462.74,531.16,1445.62,535.12z"/>
			<path class="st24" d="M1461.11,509.68c0,0-10.08,6.7-24.04,5.11c0.26-2.21,0.58-4.57,1.01-6.85c2.76-0.67,5.06-1.09,5.06-1.09
				L1461.11,509.68z"/>
			<path class="st5" d="M1467.51,502.06c-4.93,13.56-22.9,10.1-30.56,7.92c-2.16-0.61-3.49-1.12-3.49-1.12
				c-2.37-1.07-3.1-5.2-2.89-10.42c0.41-10.32,4.48-24.89,6.82-28.4c3.52-5.28,9.39-10.65,26.83-3.17
				C1481.66,474.35,1473.83,484.69,1467.51,502.06z"/>
			<path class="st20" d="M1480.98,495.1c-5.51,4.49-17.33,12.8-17.33,12.8s1.32-1.56,2.93-6.04c0.18-0.51,0.24-1.25,0.22-2.04
				c-0.07-2.2,0.46-4.39,1.62-6.26c0.72-1.17,0.98-2.38,0.07-3.24c-1.49-1.42-4.05-0.12-5.72,1.03c-1.1,0.76-2.55,0.8-3.69,0.09
				c-0.01,0-0.01-0.01-0.02-0.01c-4.7-2.95,0.49-8.14-3.33-12.44c-3.83-4.31-20.37-4.9-19.7-7.6c-5.65-3.19-2.09-14.96-1.98-15.59
				c0,0,8.1,0.72,18.22-1.81c8.21-2.06,17.27,3.21,20.14,5.39c0-0.52-0.09-1.24-0.46-2.01c0,0,1.24,1.23,1.22,2.66
				c0.13,0.13,0.18,0.21,0.14,0.24c0,0,1.64-0.03,2.59,0.6c0,0-0.7-0.22-1.03,0.2c-0.04,0.05-0.09,0.08-0.14,0.11
				C1485.71,468.93,1485.54,491.37,1480.98,495.1z"/>
			<path class="st10" d="M1441.51,500.1c0,0-0.88,1.71-5.33,0.29c0,0-3.73-1.19-3.11-3.15
				C1433.06,497.24,1437.1,496.75,1441.51,500.1z"/>
			<path class="st25" d="M1440.3,543.82c0,0-9.9,125.15-9.76,135.57c0.14,10.43,10.97,21.45,10.97,21.45s8.63-9.45,10.32-19.43
				c1.69-9.98-4.78-136.32-4.78-136.32L1440.3,543.82z"/>
			<path class="st26" d="M1506.9,700.85c-0.01,0-0.01,0-0.02,0c-30.1-4.33-21.48-103.96-19.11-104.35
				c2.36-0.39,11.02,17.81,11.02,17.81l0.83,4.04c2.3,23.1,5.65,49.63,10.73,77.62C1510.69,697.81,1509.4,699.44,1506.9,700.85z"/>
			<g>
				<path class="st19" d="M1595.39,775.06l-63.65,18.52c-8.28,2.41-17.04-2.39-19.45-10.68l-8.03-27.59
					c-2.41-8.28,2.39-17.03,10.68-19.45l63.65-18.52c8.28-2.41,17.03,2.39,19.45,10.68l8.03,27.59
					C1608.48,763.9,1603.67,772.65,1595.39,775.06z"/>
				<path class="st20" d="M1512.65,752.86l8.12,27.9c1.57,5.4,5.83,9.33,10.9,10.76c1.68,0.48,3.45,0.68,5.24,0.56c0,0,0,0,0.01,0
					l0,0c1.12-0.07,2.25-0.26,3.37-0.59l63.54-18.49c8.32-2.42,13.14-11.2,10.72-19.52l-8.12-27.91
					c-2.42-8.31-11.2-13.14-19.52-10.72l-21.88,6.37l-1.73-5.95c-0.8-2.75-3.69-4.33-6.44-3.54l-2.4,0.7l-13.31,3.87l-3.31,0.96
					c-1.33,0.38-2.43,1.27-3.1,2.49c-0.67,1.22-0.82,2.62-0.44,3.95l1.73,5.95l-12.68,3.69c-0.5,0.15-0.99,0.32-1.46,0.5
					c0,0-0.01,0-0.01,0.01l0,0c-4.82,1.94-8.25,6.11-9.42,10.94l0,0C1511.84,747.37,1511.86,750.14,1512.65,752.86z M1561.9,722.13
					l-22.74,6.62l-1.73-5.95c-0.3-1.02,0.29-2.1,1.32-2.4l5.71-1.66l10.47-3.05l2.83-0.82c0.2-0.06,0.39-0.08,0.58-0.07
					c0.83,0.01,1.58,0.56,1.83,1.39L1561.9,722.13z"/>
			</g>
			<path class="st5" d="M1542.83,704.31c0,0-1.97,16.51,1.73,16.27c3.7-0.24,12.76-2.01,13.37-4.85c0.62-2.84-6.93-16.1-6.93-16.1
				L1542.83,704.31z"/>
			<path class="st5" d="M1543.31,704.27c0,0-2.83,3.52-3.08,6.29c-0.24,2.77-1.59,7.61-0.33,7.92c1.27,0.31,3.59-6.03,3.59-6.03
				L1543.31,704.27z"/>
			<path class="st10" d="M1484.31,535.85c0,0,15.99,3.83,28.63,28.11c12.64,24.28,22.62,73.25,28.66,86.17
				c6.03,12.92,10.63,51.71,10.63,51.71s-0.94,1.93-4.19,2.63c-2.52,0.55-5.11,0.33-5.11,0.33s-23.77-38.07-27.18-51.75
				c-1.85-7.4-30.05-66.65-30.05-66.65L1484.31,535.85z"/>
		</g>
		<g>
			<polygon class="st5" points="431.43,958.54 429.04,941.29 439.1,932.88 442.27,955.72 			"/>
			<path class="st22" d="M464.85,973.95h-41.02c0,0-0.98-6.25,1.16-11c2.05-4.55,5.25-7.36,5.54-10.85
				c2.61,2.68,5.81,4.41,11.74,3.61c0.73,1.18,4.69,7.48,7.12,9.23C452.07,966.88,464.02,966.19,464.85,973.95z"/>
			<path class="st12" d="M456.61,725.58c-2.68,21.58-4.88,41.93-6.66,60.89c-9.55,101.03-7.67,162.79-7.67,162.79
				s-0.69,1.83-6.61,1.86c-3.35,0.02-6.62-0.71-6.62-0.71s-21.37-65.98-19.72-103.52c0.2-4.52,0.73-8.62,1.67-12.15
				c5.13-19.21-18.98-92.67,7.23-120.03C444.4,687.34,457.84,715.67,456.61,725.58z"/>
			<path class="st11" d="M456.61,725.58c-2.68,21.58-4.88,41.93-6.66,60.89l-40.63,60.41c0.2-4.52,0.73-8.62,1.67-12.15
				c5.13-19.21-18.98-92.67,7.23-120.03C444.4,687.34,457.84,715.67,456.61,725.58z"/>
			<path class="st5" d="M488.89,519.73c0,0-0.99-4.93-2.1-8.69c-0.49-1.67,2.94-12.6,5.32-13.95c2.38-1.35,8.57,6.02,6.81,11.67
				c-0.9,2.9-2.38,12.36-2.38,12.36L488.89,519.73z"/>
			<path class="st5" d="M488.89,519.73c0,0-1.29-2.86-2.46-3.32c-1.17-0.46-2.42-5.14-3.27-6.99c0,0,0.83-1.21,2.27,0.35
				c0.88,0.95,2.85,3.74,2.85,3.74L488.89,519.73z"/>
			<path class="st5" d="M319.55,536.32c-0.25,0.52-0.6,1.45-0.91,2.32c0-0.24-0.01-0.47-0.01-0.7c-0.02-1.74-6.5-11.19-9.17-11.78
				c-2.67-0.59-6.43,8.26-3.1,13.16c1.71,2.51,5.89,11.12,5.89,11.12l6.91-3.57c0,0,0.4-3.11,1.38-3.9
				c0.98-0.78,0.81-5.62,1.08-7.64C321.62,535.32,320.48,534.4,319.55,536.32z"/>
			<path class="st5" d="M362.64,953.37c-0.58-5.53-0.72-20.08-0.72-20.08s14.82-4.74,14.28-1.49c-2.68,16-1.95,23.92-1.95,23.92
				l-5.99,3.58L362.64,953.37z"/>
			<path class="st12" d="M444.22,724.55c0,0-57.27,156.99-68.54,225.08c0,0-2.61,1.79-7.48,1.2c-5.53-0.67-7.04-4.51-7.04-4.51
				s-10.35-81.62,10.22-109.95c14.13-19.47-6.09-104.96,26.81-111.82C431.09,717.69,444.22,724.55,444.22,724.55z"/>
			<path class="st7" d="M434.05,573.54C434.05,573.53,434.05,573.53,434.05,573.54c-0.01-0.07-0.03-0.14-0.05-0.21
				c-0.33-1.38-0.7-2.74-1.09-4.09c0-0.01,0-0.01,0-0.01c-1.2-4.13-2.62-8.06-4.16-11.53c-0.89-1.99-1.8-3.83-2.74-5.48
				c-0.14-0.25-0.28-0.49-0.42-0.73l-0.01,0c-2.21-3.72-4.49-6.29-6.54-7.08c-3.74-1.45-7.91-1.04-10.78-0.45
				c0.63-0.88,2.06-1.38,2.06-1.38c-1.83,0-5.57,2.37-5.57,2.37c-26.38-5.9-24.84,31.41-23.04,39.87
				c1.79,8.46-6.7,12.57-18.68,21.22c-22.86,16.51-22.47,34.01-22.47,34.01c0.21,0.09,0.43,0.19,0.66,0.3
				c0.92-2.26,2.87-6.55,4.92-7.46c-0.06,0.2-1.72,5.75-2.19,8.86c3.48,1.92,8.3,4.89,13.53,8.24c0,0,0,0,0.01,0
				c7,4.48,14.73,9.64,20.92,13.82c-0.29-1.7-0.59-4.13-0.15-5.51l1.97,6.11l0.26,0.8c3.95,2.68,7.07,4.82,8.65,5.92
				c0.16,0.11,0.31,0.21,0.44,0.3c0.46,0.32,0.71,0.49,0.71,0.49c-0.53-2.16,1.78-7.79,5.65-14.89c0.27-0.5,0.55-1,0.83-1.51
				c1.25-2.24,2.65-4.61,4.15-7.04c0.54-0.88,1.09-1.76,1.66-2.66c0-0.01,0-0.01,0-0.01c0.45-0.72,0.91-1.44,1.39-2.17l0-0.01
				c1.12-1.73,2.28-3.48,3.47-5.23c3.07-4.53,6.31-9.03,9.52-13.15c4.66-6,9.23-11.22,13.06-14.64c0.13-0.26,0.24-0.52,0.35-0.79
				c0.6-1.39,1.06-2.94,1.42-4.51c0.11-0.47,0.21-0.95,0.3-1.42c0.95-5.02,0.97-10,0.96-11.19c0.31,4.85,0.18,8.51-0.14,11.27
				c-0.07,0.61-0.15,1.17-0.25,1.69l0,0.01c-0.2,1.18-0.44,2.16-0.69,2.97c0.63-0.78,1.18-1.63,1.66-2.56
				c0.32-0.61,0.61-1.25,0.87-1.92C437.56,596.32,436.73,584.56,434.05,573.54z"/>
			<path class="st5" d="M429.1,611.34c0.09,0.03-7.38,5.43-13.72,4.67c-5.96-0.71-10.81-7.58-10.73-7.61
				c2.36-0.84,2.56-4.28,0.38-18.6l1.13,0.05l18.99,0.91c0,0,0.44,5.87,1.24,11.34C427.05,606.69,427.97,611,429.1,611.34z"/>
			<path class="st9" d="M425.13,590.76c0,0,0.44,5.87,1.24,11.34c-10.36,1.24-17.22-7.36-20.23-12.25L425.13,590.76z"/>
			<path class="st7" d="M403.94,588.13c0,0-6.68-7.74-9.07-14.86c-1.7-5.08-1.92-24.81,17.93-24.92c0,0,5.73-0.28,11.57,2.51
				c4.64,2.22,11.65,7.47,7.35,25.36l-0.92,5.96L403.94,588.13z"/>
			<path class="st10" d="M459,721.54c0,0-24.71,14.68-55.73,7.13c-0.37-0.09-25.55-4.11-25.55-4.11c0.43-1.18,3.69-20.63,4.11-21.72
				c5.5-14.2,15.56-91.29,23.97-95.09c2.15,2.34,8.28,3.94,13.53,3.47c6.04-0.53,8.07-3.15,7.57-5.95c6.69,3.16,11.83,6.1,11.83,6.1
				C444.84,620.53,459,721.54,459,721.54z"/>
			<path class="st5" d="M429.35,595.43c0,0-24.36,4.03-26.64-11.17c-2.28-15.21-6.96-24.93,8.5-28.15
				c15.46-3.22,19.36,2.13,21.35,7.02C434.55,568.01,435.63,593.98,429.35,595.43z"/>
			<path class="st7" d="M422.27,554.07c0,0-4.03,18.84-13.9,23.01c-9.87,4.17-14.73,2.08-14.73,2.08s6.94-7.42,6.95-18.58
				C400.59,560.58,415.97,546.33,422.27,554.07z"/>
			<path class="st7" d="M420.83,555.77c0,0,5.59,3.24,7.38,6.93c1.79,3.69,3.53,11.59,5.81,10.97c0,0,3.23-12.88-3.45-18.9
				C423.49,548.39,420.83,555.77,420.83,555.77z"/>
			<path class="st23" d="M496.71,520.08c-0.99-0.35-2.45-1.17-4.36-1.35c-1.7-0.15-3.83,0.4-3.83,0.4s-6.87,42.72-7.38,44.99
				c-0.51,2.26-29.48,34.9-37.29,34.77c-7.05-0.12-15.41,5.33-16.96,6.37c0,0,16.42,34.73,17.24,41.26
				c0.89,7.1,9.39,116.42,9.39,116.42s-0.51,5.09,9,2.35c9.5-2.73,11.88-5,11.88-5s-8.73-86.06-10.56-112.83
				c-0.25-3.59-0.83-6.92-1.67-9.99c-0.81-2.96-0.17-6.12,1.63-8.6c12.01-16.49,30.98-43.21,32.04-48.89
				C497.41,571.65,496.71,520.08,496.71,520.08z"/>
			<path class="st22" d="M396.82,973.95h-41.02c0,0-0.98-6.25,1.16-11c2.05-4.55,5.25-7.36,5.54-10.85
				c2.61,2.68,5.81,4.41,11.74,3.61c0.73,1.18,4.69,7.48,7.12,9.23C384.04,966.88,395.99,966.19,396.82,973.95z"/>
			<path class="st23" d="M425,649.89c-1.38-8.51-19.03-42.67-19.03-42.67s-11.16-3.34-18.5-0.68c-7.34,2.66-45.34-18.79-46.56-20.77
				c-1.22-1.98-21.57-39.9-21.57-39.9s-1.69-0.98-4.39,0.43c-2.68,1.39-2.69,4.12-2.69,4.12s15.71,47.75,19.89,55.14
				c2.52,4.45,23.71,19.96,40.13,31.57c3.14,2.22,4.78,5.99,4.27,9.8c-2.21,16.33-2.77,25.52-5.31,53.54
				c-2.11,23.24-2.91,68.24-2.91,68.24s18.38,6.36,31.07,7.2c12.69,0.84,15.45-12.53,15.45-12.53S426.42,658.64,425,649.89z"/>
			<path class="st10" d="M421.37,587.91c0,0,2.96,1.74,6.45,1.21c2.39-0.36,2.94-3.2,2.94-3.2s-1.66-0.52-4.32,0.01
				C423.78,586.46,421.37,587.91,421.37,587.91z"/>
		</g>
		<g>
			<path class="st5" d="M1199.45,297.97c0,0-11.4-20.26,0-24.38c11.4-4.12,16.56-0.32,17.1,4.29c0.54,4.61-4.34,22.8-4.34,22.8
				L1199.45,297.97z"/>
			<path class="st12" d="M1208.59,427.53c-20.78,3.75-39.89,5.48-57.14,5.87c-16.37,0.37-31.06-0.48-43.92-1.98
				c-3.45-0.4-6.77-0.84-9.96-1.32c-33.65-5.1-52.23-14.15-52.23-14.15s30.75-64.36,55.58-61.89c29.14,2.9,78.51,29.05,83.42,21.72
				c5.53-8.26,10.15-79.12,10.15-79.12c12.92-8.85,20.63,0.48,20.63,0.48S1240.37,421.8,1208.59,427.53z"/>
			<path class="st11" d="M1208.59,427.53c-20.78,3.75-39.89,5.48-57.14,5.87c-16.37,0.37-31.06-0.48-43.92-1.98
				c-7.75-24.66-13.33-49.84,2.26-34.65C1137.3,423.55,1208.59,427.53,1208.59,427.53z"/>
			<path class="st22" d="M1043.01,947.16c0,0-2.21,25.58,3.2,28.25l69.21-0.14c0,0,0-7.99-11.12-9.76
				c-11.12-1.78-30.65-8.28-33.95-22.78C1067.05,928.22,1043.01,947.16,1043.01,947.16z"/>
			<path class="st25" d="M1093.82,637.51c-0.34,16.73-1.15,33.99-2.72,49.49c-7.47,73.59-10.1,162.51-11.18,179.65
				c-1.86,29.76-7.74,77.3-7.74,77.3s-11.66,11.07-34.39,5.79c0,0-18.83-68.47-23.04-140.57c-0.07-1.18-0.13-2.37-0.19-3.56
				c-0.49-9.53-1-20.43-1.52-32.18c-3.46-78.72-7.22-195.66-7.22-195.66l86.85-20.39C1092.68,557.36,1094.68,595.8,1093.82,637.51z"
				/>
			<path class="st22" d="M1093.82,637.51c-22.01,37.98-63.97,107.94-80.77,135.91c-3.46-78.72-7.22-195.66-7.22-195.66l86.85-20.39
				C1092.68,557.36,1094.68,595.8,1093.82,637.51z"/>
			<path class="st5" d="M873.91,563.94c0,0-14.13,16.62-15.4,21.23c-1.27,4.61-3.54,21.21-2.32,26.2
				c1.21,4.99,10.61-13.91,14.03-15.93c3.42-2.02-2.57,7.52-1.4,9.11c1.17,1.59,7.92-5.57,10.55-7.99
				c2.63-2.42,2.37-15.46,5.53-23.17C888.05,565.69,873.91,563.94,873.91,563.94z"/>
			<path class="st22" d="M870.6,918.08c0,0-12.32,11.24-9.92,19.23c2.4,7.99,13.52,13.31,15.02,23.08
				c1.5,9.76,7.51,15.09,12.92,15.09c5.41,0,25.78,0,25.78,0s3.98-6.87-5.63-8.94c-9.61-2.07-13.24-13.54-12.64-24.19
				c0.6-10.65-0.9-24.85-0.9-24.85l-20.43-4.73L870.6,918.08z"/>
			<path class="st25" d="M1078.99,579.54c0,0-81.3,173.96-124.57,250.28c-43.27,76.33-56.79,97.63-56.79,97.63
				s-24.79-9.76-27.04-16.42c0,0,16.54-147.35,45.52-183.28c16.37-20.3,35.6-81.21,36.51-102.51c0.9-21.3,19.9-72.14,19.9-72.14
				L1078.99,579.54z"/>
			<path class="st12" d="M1102.76,587.74c0,0-32.33,21.62-78.09,19.61c-20.08-0.88-59.92-6.57-66.35-22.54
				c-1.51-3.75-0.4-8.51,1.86-15.81c5.88-18.98,19.58-55.13,15.44-135.29c-0.39-7.46-0.18-14.47,0.54-21.03
				c4.31-39.48,26.94-62.86,48.81-70.5c53.33-18.64,71.11,7.18,71.11,7.18s23.58,18.68,27.13,57.66
				C1130.31,484.98,1102.76,587.74,1102.76,587.74z"/>
			<path class="st5" d="M1040.6,337.69c0,0,24.47,14.88,51.02,10.68c0,0,5.25-1.33,2.67-7.5c1.62-4.97,1.42-4.52,2.36-8.22
				c2.33-8.5,3.04-13.41,3.04-13.41l-15.06-15.83l-14.27-15.13C1066.4,324.44,1040.6,337.69,1040.6,337.69z"/>
			<path class="st27" d="M1068.06,302c0,0,8.2,21.91,28.58,30.66c2.33-8.5,3.84-17.4,3.84-17.4l-15.87-11.84L1068.06,302z"/>
			<path class="st5" d="M1116.57,318.48c0,0-46.71,5.84-49.99-22.87c-3.28-28.71-11.52-47.28,18.17-52.23
				c29.69-4.94,36.74,5.38,40.2,14.7C1128.42,267.41,1128.64,316.22,1116.57,318.48z"/>
			<path class="st28" d="M1051.84,238.72c-0.4-0.5-1.36-0.93-3.52-1.13c0,0,1.77-1.02,4.08-0.99c0.57-2.99,2.37-8.25,7.59-9.35
				c0,0-2.84,1.38-3.32,4.56c6.23-5.93,19.25-9.93,54.72-5.78c46.75,5.47,30.16,34.91,23.96,38.26c-6.21,3.35-21.12-7.04-32.46-6.57
				c-11.34,0.47-14.11,16.73-18.04,18.83c-3.92,2.1-2.26-1.81-7.37-4.35c-5.1-2.54-5.92,6.04-4.63,11.69
				c1.29,5.65-6.12,12.76-6.12,12.76s0,0-6.91-8.04c-6.91-8.04-12.47-41.17-8.92-48.06
				C1051.21,239.95,1051.52,239.34,1051.84,238.72z"/>
			<g>
				<polygon class="st25" points="1194.5,284.54 1115.19,285.24 1114.65,273.31 1193.71,267.19 				"/>
				<polygon class="st25" points="1254.36,286.53 1168.02,287.78 1167.03,266.09 1253.13,259.42 				"/>
				<polygon class="st22" points="1312.58,288.23 1239.77,288.32 1238.44,259.04 1310.95,252.44 				"/>
				<path class="st22" d="M1313.62,293.17L1313.62,293.17c2.25-0.1,3.98-2.01,3.88-4.25l-1.71-37.62c-0.1-2.25-2.01-3.98-4.25-3.88
					l0,0c-2.25,0.1-3.98,2.01-3.88,4.25l1.71,37.62C1309.47,291.54,1311.37,293.28,1313.62,293.17z"/>
				<path class="st25" d="M1114.95,287.79L1114.95,287.79c-2,0.09-3.69-1.45-3.78-3.45l-0.44-9.76c-0.09-2,1.45-3.69,3.45-3.78l0,0
					c2-0.09,3.69,1.45,3.78,3.45l0.44,9.76C1118.49,286.01,1116.94,287.7,1114.95,287.79z"/>
			</g>
			<path class="st11" d="M960.19,569c5.88-18.98,19.58-55.13,15.44-135.29c-0.39-7.46-0.18-14.47,0.54-21.03l0.01,0
				c17.55-1.51,44.38,17.47,44.38,17.47S1004.03,530.88,960.19,569z"/>
			<path class="st12" d="M1040.6,337.69c0,0-45.01,7.74-68.48,36.39c-23.47,28.66-61.23,69.06-70.16,83.21
				c-8.93,14.15-33.71,110.44-33.71,110.44s1.64,3.1,8.47,4.9c6.54,1.72,11.29-0.95,11.29-0.95s32.84-56.2,45.19-84.27
				c5.13-11.66,93.93-57.86,127.32-53.07C1073.62,436.23,1040.6,337.69,1040.6,337.69z"/>
			<path class="st5" d="M1194.02,263.77c0,0,9.68,5.92,15.47,3.42c5.79-2.51,5.28-4.8,5.28-4.8S1197.28,257.53,1194.02,263.77z"/>
			<path class="st20" d="M1084.27,369.08c0,0-19.75,124.7-159.89,161.01l-15.27,30.12l26.82,4.54c0,0,159.54-46.22,157.39-197.87
				L1084.27,369.08z"/>
			<polygon class="st19" points="1081.21,349.18 1074.74,349.81 1074.74,359.18 1084.27,369.08 1093.33,366.88 1093.33,353.89 
				1086.82,349.18 			"/>
			<path class="st11" d="M1055.82,324.38c0,0-6.26,1.41-20.58,13.31c0,0,14.24,30.22,44.27,33.84c0,0-0.48-14.02,1.69-22.35
				C1081.21,349.18,1057.4,340.66,1055.82,324.38z"/>
			<path class="st11" d="M1081.21,349.18c0,0,14.66,7.78,15.74,19.9c0,0,5.6-8.88,3.98-15.02c-1.63-6.15-6.65-13.19-6.65-13.19
				S1094.78,348.28,1081.21,349.18z"/>
		</g>
	</g>
</g>
</svg>
