<?xml version="1.0" encoding="utf-8"?>
<!-- Generator: Adobe Illustrator 25.4.1, SVG Export Plug-In . SVG Version: 6.00 Build 0)  -->
<svg version="1.1" id="Layer_1" xmlns="http://www.w3.org/2000/svg" xmlns:xlink="http://www.w3.org/1999/xlink" x="0px" y="0px"
	 viewBox="0 0 712.15 456.22" style="enable-background:new 0 0 712.15 456.22;" xml:space="preserve">
<style type="text/css">
	.st0{fill:none;}
	.st1{fill:#EA601C;}
	.st2{fill:#E31222;}
	.st3{fill:#F59E21;}
</style>
<g>
	<rect class="st0" width="712.15" height="456.22"/>
	<g>
		<path d="M244.04,364.11c0-5.68,3.71-10.36,9.82-10.36c5.82,0,9.76,4.48,9.76,10.36c0,5.91-3.93,10.37-9.76,10.37
			C247.76,374.48,244.04,369.81,244.04,364.11 M270.26,364.11v-16.17h-7.04v3.92c-2.25-2.9-5.63-4.74-10.24-4.74
			c-9.07,0-16.17,7.12-16.17,16.99c0,9.9,7.1,17,16.17,17c4.61,0,7.99-1.82,10.24-4.72v3.91h7.04V364.11z M508.13,364.11
			c0-5.68,3.73-10.36,9.8-10.36c5.85,0,9.77,4.48,9.77,10.36c0,5.91-3.92,10.37-9.77,10.37
			C511.86,374.48,508.13,369.81,508.13,364.11 M534.34,364.11v-29.18h-7.03v16.94c-2.23-2.9-5.62-4.74-10.21-4.74
			c-9.09,0-16.21,7.12-16.21,16.99c0,9.9,7.12,17,16.21,17c4.59,0,7.98-1.82,10.21-4.72v3.91h7.03V364.11z M357.63,353.43
			c4.54,0,7.45,2.83,8.19,7.85h-16.78C349.77,356.62,352.61,353.43,357.63,353.43 M357.76,347.12c-9.47,0-16.11,6.89-16.11,16.99
			c0,10.31,6.9,17,16.59,17c4.87,0,9.34-1.21,13.28-4.53l-3.45-5.21c-2.72,2.17-6.17,3.39-9.42,3.39c-4.54,0-8.67-2.12-9.69-7.93
			h24.05c0.06-0.88,0.13-1.77,0.13-2.72C373.07,354.01,366.83,347.12,357.76,347.12 M442.76,364.11c0-5.68,3.75-10.36,9.84-10.36
			c5.83,0,9.74,4.48,9.74,10.36c0,5.91-3.91,10.37-9.74,10.37C446.51,374.48,442.76,369.81,442.76,364.11 M468.98,364.11v-16.17
			h-7.04v3.92c-2.25-2.9-5.62-4.74-10.24-4.74c-9.07,0-16.17,7.12-16.17,16.99c0,9.9,7.1,17,16.17,17c4.63,0,8-1.82,10.24-4.72v3.91
			h7.04V364.11z M403.01,364.11c0,9.84,6.84,17,17.28,17c4.87,0,8.11-1.07,11.66-3.86l-3.39-5.68c-2.66,1.89-5.44,2.91-8.47,2.91
			c-5.63-0.06-9.77-4.12-9.77-10.37c0-6.22,4.14-10.29,9.77-10.36c3.03,0,5.81,1.03,8.47,2.93l3.39-5.7
			c-3.55-2.77-6.79-3.86-11.66-3.86C409.85,347.12,403.01,354.29,403.01,364.11 M493.78,347.12c-4.07,0-6.72,1.91-8.55,4.74v-3.92
			h-6.97v32.36h7.04v-18.14c0-5.34,2.31-8.34,6.91-8.34c1.43,0,2.93,0.19,4.41,0.81l2.17-6.63
			C497.22,347.38,495.2,347.12,493.78,347.12 M305.06,350.49c-3.38-2.22-8.05-3.37-13.21-3.37c-8.18,0-13.47,3.92-13.47,10.34
			c0,5.31,3.93,8.55,11.17,9.58l3.31,0.46c3.87,0.55,5.71,1.56,5.71,3.4c0,2.49-2.59,3.92-7.39,3.92c-4.88,0-8.4-1.56-10.77-3.39
			l-3.31,5.47c3.85,2.87,8.74,4.2,14.02,4.2c9.34,0,14.76-4.4,14.76-10.55c0-5.7-4.28-8.67-11.31-9.71l-3.31-0.46
			c-3.06-0.39-5.49-1.01-5.49-3.19c0-2.36,2.3-3.78,6.17-3.78c4.11,0,8.12,1.55,10.09,2.77L305.06,350.49z M395.9,347.12
			c-4.07,0-6.71,1.91-8.55,4.74v-3.92h-6.97v32.36h7.03v-18.14c0-5.34,2.31-8.34,6.91-8.34c1.43,0,2.93,0.19,4.41,0.81l2.17-6.63
			C399.36,347.38,397.32,347.12,395.9,347.12 M335.83,347.94h-11.52v-9.82h-7.12v9.82h-6.57v6.43h6.57v14.75
			c0,7.52,2.92,11.99,11.26,11.99c3.03,0,6.56-0.94,8.79-2.51l-2.02-6.03c-2.1,1.22-4.4,1.84-6.24,1.84c-3.52,0-4.67-2.17-4.67-5.42
			v-14.62h11.52V347.94z M230.57,380.3v-20.29c0-7.65-4.87-12.82-12.74-12.88c-4.14-0.08-8.4,1.22-11.37,5.75
			c-2.23-3.58-5.77-5.75-10.7-5.75c-3.45,0-6.84,1.03-9.48,4.8v-3.99h-7.05v32.36h7.13v-17.95c0-5.6,3.12-8.6,7.92-8.6
			c4.68,0,7.04,3.06,7.04,8.53v18.01h7.12v-17.95c0-5.6,3.26-8.6,7.92-8.6c4.8,0,7.1,3.06,7.1,8.53v18.01H230.57z"/>
		<rect x="302.73" y="101.19" class="st1" width="106.69" height="191.75"/>
		<path class="st2" d="M309.51,197.06c0-38.89,18.21-73.55,46.56-95.86c-20.73-16.34-46.91-26.08-75.35-26.08
			c-67.34,0-121.93,54.6-121.93,121.94c0,67.35,54.58,121.94,121.93,121.94c28.44,0,54.62-9.74,75.35-26.06
			C327.72,270.59,309.51,235.97,309.51,197.06"/>
		<path class="st3" d="M553.36,197.06c0,67.35-54.58,121.94-121.94,121.94c-28.43,0-54.61-9.74-75.35-26.06
			c28.37-22.35,46.58-56.97,46.58-95.88c0-38.89-18.21-73.55-46.58-95.86c20.75-16.34,46.92-26.08,75.35-26.08
			C498.78,75.11,553.36,129.71,553.36,197.06"/>
	</g>
</g>
</svg>
