<?xml version="1.0" encoding="utf-8"?>
<!-- Generator: Adobe Illustrator 25.4.1, SVG Export Plug-In . SVG Version: 6.00 Build 0)  -->
<svg version="1.1" id="Layer_1" xmlns="http://www.w3.org/2000/svg" xmlns:xlink="http://www.w3.org/1999/xlink" x="0px" y="0px"
	 viewBox="0 0 712.15 456.22" style="enable-background:new 0 0 712.15 456.22;" xml:space="preserve">
<style type="text/css">
	.st0{fill:none;}
	.st1{fill-rule:evenodd;clip-rule:evenodd;fill:#113984;}
	.st2{fill-rule:evenodd;clip-rule:evenodd;fill:#009DE2;}
	.st3{fill-rule:evenodd;clip-rule:evenodd;fill:#172C70;}
</style>
<rect class="st0" width="712.15" height="456.22"/>
<g>
	<g>
		<path class="st1" d="M220.46,318.5c11.89,0,22.87,6.45,21.36,22.53c-1.78,19.06-12.06,29.68-28.22,29.73h-14.09
			c-2.03,0-3.01,1.66-3.54,5.05l-2.72,17.35c-0.41,2.62-1.76,3.91-3.74,3.91h-13.13c-2.09,0-2.82-1.34-2.36-4.33l10.85-69.56
			c0.54-3.42,1.84-4.7,4.16-4.7h31.42V318.5z M199.07,355.73h10.69c6.69-0.25,11.13-4.89,11.57-13.24c0.27-5.16-3.21-8.85-8.75-8.83
			l-10.07,0.05L199.07,355.73L199.07,355.73z M277.52,391.75c1.2-1.09,2.42-1.66,2.25-0.31l-0.43,3.22
			c-0.22,1.68,0.45,2.57,2.01,2.57h11.66c1.97,0,2.92-0.79,3.4-3.83l7.19-45.11c0.36-2.27-0.19-3.38-1.91-3.38h-12.82
			c-1.16,0-1.72,0.65-2.02,2.41l-0.47,2.78c-0.25,1.45-0.91,1.7-1.53,0.25c-2.17-5.15-7.72-7.46-15.51-7.31
			c-17.99,0.37-30.12,14.03-31.42,31.54c-1,13.54,8.7,24.18,21.49,24.18C268.69,398.75,272.84,395.99,277.52,391.75L277.52,391.75z
			 M267.75,384.81c-7.74,0-13.14-6.18-12.02-13.75c1.13-7.57,8.36-13.75,16.11-13.75s13.14,6.18,12.02,13.75
			C282.73,378.63,275.5,384.81,267.75,384.81L267.75,384.81z M326.44,344.76h-11.78c-2.44,0-3.43,1.78-2.66,4.06l14.69,43
			l-14.47,20.45c-1.21,1.71-0.27,3.27,1.43,3.27h13.29c1.98,0,2.95-0.51,3.95-1.94l45.17-64.78c1.39-1.99,0.74-4.09-1.55-4.09
			l-12.57-0.01c-2.16,0-3.02,0.86-4.26,2.65l-18.83,27.33l-8.38-27.38C329.94,345.63,328.71,344.76,326.44,344.76z"/>
		<path class="st2" d="M423.06,318.5c11.89,0,22.87,6.45,21.36,22.53c-1.78,19.06-12.06,29.68-28.22,29.73h-14.09
			c-2.03,0-3.01,1.66-3.54,5.05l-2.72,17.35c-0.41,2.62-1.76,3.91-3.74,3.91h-13.13c-2.09,0-2.82-1.34-2.36-4.33l10.85-69.56
			c0.54-3.42,1.84-4.7,4.16-4.7h31.42V318.5z M401.67,355.73h10.69c6.69-0.25,11.13-4.89,11.58-13.24c0.27-5.16-3.21-8.85-8.75-8.83
			l-10.07,0.05L401.67,355.73L401.67,355.73z M480.11,391.75c1.2-1.09,2.42-1.66,2.25-0.31l-0.43,3.22
			c-0.22,1.68,0.45,2.57,2.01,2.57h11.66c1.97,0,2.92-0.79,3.4-3.83l7.19-45.11c0.36-2.27-0.19-3.38-1.91-3.38h-12.82
			c-1.16,0-1.72,0.65-2.02,2.41l-0.47,2.78c-0.25,1.45-0.91,1.7-1.53,0.25c-2.17-5.15-7.72-7.46-15.51-7.31
			c-17.99,0.37-30.12,14.03-31.42,31.54c-1,13.54,8.7,24.18,21.49,24.18C471.29,398.75,475.44,395.99,480.11,391.75L480.11,391.75z
			 M470.36,384.81c-7.74,0-13.14-6.18-12.02-13.75c1.13-7.57,8.36-13.75,16.11-13.75s13.14,6.18,12.02,13.75
			C485.34,378.63,478.1,384.81,470.36,384.81L470.36,384.81z M524.16,397.31h-13.47c-1.07,0-1.81-0.84-1.65-1.87l11.84-74.94
			c0.16-1.03,1.17-1.87,2.24-1.87h13.47c1.07,0,1.81,0.84,1.65,1.87l-11.84,74.94C526.23,396.48,525.22,397.31,524.16,397.31z"/>
	</g>
	<g>
		<path class="st2" d="M369.4,95.93h66.23c35.56,0,48.94,18,46.87,44.48c-3.4,43.66-29.81,67.82-64.82,67.82H400
			c-4.8,0-8.03,3.18-9.33,11.8l-7.59,50.05c-0.5,3.25-2.21,5.16-4.77,5.38h-41.52c-3.91,0-5.3-2.99-4.27-9.47l25.37-160.57
			C358.89,98.99,362.41,95.93,369.4,95.93z"/>
		<path class="st1" d="M328,40.68h66.29c18.67,0,40.82,0.6,55.63,13.68c9.9,8.74,15.09,22.63,13.9,37.56
			c-4.07,50.62-34.34,78.98-74.96,78.98h-32.7c-5.57,0-9.25,3.69-10.82,13.68l-9.13,58.04c-0.6,3.76-2.22,5.98-5.2,6.26h-40.84
			c-4.53,0-6.14-3.47-4.96-10.98l29.4-186.2C315.81,44.22,319.88,40.68,328,40.68z"/>
		<path class="st3" d="M346.29,178.71l11.57-73.29c1.01-6.43,4.53-9.5,11.54-9.5h66.23c10.96,0,19.83,1.71,26.77,4.87
			c-6.65,45.06-35.8,70.09-73.95,70.09h-32.7C351.44,170.89,348.22,173.08,346.29,178.71z"/>
	</g>
</g>
</svg>
