<?xml version="1.0" encoding="utf-8"?>
<!-- Generator: Adobe Illustrator 25.4.1, SVG Export Plug-In . SVG Version: 6.00 Build 0)  -->
<svg version="1.1" id="Layer_1" xmlns="http://www.w3.org/2000/svg" xmlns:xlink="http://www.w3.org/1999/xlink" x="0px" y="0px"
	 viewBox="0 0 1631.96 2000.33" style="enable-background:new 0 0 1631.96 2000.33;" xml:space="preserve">
<g>
	<polygon points="1295.21,0 815.98,862.63 336.74,0 176.76,0 815.98,1150.59 1455.2,0 	"/>
	<polygon points="655.46,95.99 655.46,429.71 775.44,645.69 775.44,95.99 856.5,95.99 856.5,645.71 976.48,429.74 976.48,95.99 
		1161.89,95.99 1215.22,0 416.73,0 470.06,95.99 	"/>
</g>
<path d="M396.65,1575.46l-54.02,54.02H54.02L0,1575.46H396.65z M238.23,1656.49h-79.81v303.92l39.92,39.92l39.89-39.89V1656.49z
	 M1041.99,2000.25h79.81l186.7-394.86l78.55,394.93l29.92,0l-78.79-424.87l-95.9,0L1041.99,2000.25z M1552.14,2000.33h79.81v-381.42
	l-39.92-39.92l-39.89,39.89V2000.33z M599.95,1629.48l-54.02-54.02h346.76l-54.02,54.02H599.95z M599.95,1946.31l-54.02,54.02
	h346.76l-54.02-54.02H599.95z M585.84,1760.87v-117.29l-54.02-54.02v225.33h320.97v117.29l54.02,54.02v-225.33H585.84z"/>
</svg>
