<?xml version="1.0" encoding="utf-8"?>
<!-- Generator: Adobe Illustrator 25.4.1, SVG Export Plug-In . SVG Version: 6.00 Build 0)  -->
<svg version="1.1" id="Layer_1" xmlns="http://www.w3.org/2000/svg" xmlns:xlink="http://www.w3.org/1999/xlink" x="0px" y="0px"
	 viewBox="0 0 1422.63 2000" style="enable-background:new 0 0 1422.63 2000;" xml:space="preserve">
<style type="text/css">
	.st0{fill:#FFFFFF;}
</style>
<g>
	<polygon class="st0" points="693.33,662.89 835.44,662.89 952.2,1259.26 907.86,1259.26 791.45,707.25 514.77,1259.14 
		396.49,1259.14 	"/>
	<path class="st0" d="M791.35,526.17l-59.12,59.12l-59.16-59.16V120.08h118.28V526.17z M438.33,0l80.06,80.06h427.69L1026.13,0
		H438.33z"/>
	<polygon class="st0" points="1026.13,1259.26 1026.13,596.37 514.77,596.37 514.77,160.1 443.37,88.71 440.43,85.76 396.49,41.82 
		396.5,662.89 907.87,662.89 907.87,1179.2 476.77,1179.2 438.33,1259.26 	"/>
</g>
<path class="st0" d="M345.77,1629.63l-47.09,47.09H47.09L0,1629.63H345.77z M207.67,1700.26H138.1v264.94l34.8,34.8l34.77-34.77
	V1700.26z M908.33,1999.93h69.58l162.75-344.21l68.48,344.27l26.08,0l-68.68-370.37l-83.6,0L908.33,1999.93z M523,1676.72
	l-47.09-47.09h302.28l-47.09,47.09H523z M523,1952.91L475.9,2000h302.28l-47.09-47.09H523z M510.69,1791.26v-102.25l-47.09-47.09
	v196.43h279.8v102.25l47.09,47.09v-196.43H510.69z M1353.05,2000h69.57v-332.5l-34.8-34.8l-34.77,34.77V2000z"/>
</svg>
