<?xml version="1.0" encoding="utf-8"?>
<!-- Generator: Adobe Illustrator 25.4.1, SVG Export Plug-In . SVG Version: 6.00 Build 0)  -->
<svg version="1.1" id="Layer_1" xmlns="http://www.w3.org/2000/svg" xmlns:xlink="http://www.w3.org/1999/xlink" x="0px" y="0px"
	 viewBox="0 0 1422.62 370.38" style="enable-background:new 0 0 1422.62 370.38;" xml:space="preserve">
<style type="text/css">
	.st0{fill:#FFFFFF;}
</style>
<path class="st0" d="M345.77,0.01L298.68,47.1H47.09L0,0.01H345.77z M207.67,70.64H138.1v264.94l34.8,34.8l34.77-34.77L207.67,70.64
	L207.67,70.64z M908.33,370.31h69.58L1140.66,26.1l68.48,344.27h26.08L1166.54,0h-83.6L908.33,370.31z M523,47.1L475.91,0.01h302.28
	L731.1,47.1H523z M523,323.29l-47.1,47.09h302.28l-47.09-47.09H523z M510.69,161.64V59.39L463.6,12.3v196.43h279.8v102.25
	l47.09,47.09V161.64H510.69z M1353.05,370.38h69.57V37.88l-34.8-34.8l-34.77,34.77L1353.05,370.38L1353.05,370.38z"/>
</svg>
