<?xml version="1.0" encoding="utf-8"?>
<!-- Generator: Adobe Illustrator 25.4.1, SVG Export Plug-In . SVG Version: 6.00 Build 0)  -->
<svg version="1.1" id="Layer_1" xmlns="http://www.w3.org/2000/svg" xmlns:xlink="http://www.w3.org/1999/xlink" x="0px" y="0px"
	 viewBox="0 0 712.15 456.22" style="enable-background:new 0 0 712.15 456.22;" xml:space="preserve">
<style type="text/css">
	
		.st0{clip-path:url(#SVGID_00000086666357676440601180000002399563033654343305_);fill:url(#XMLID_00000026841977941203353050000017455412871091544724_);}
	.st1{fill:none;}
</style>
<g>
	<g>
		<defs>
			<path id="SVGID_1_" d="M234.08,135.51l-50,126.39l-20.23-107.46c-2.37-12-11.75-18.93-22.16-18.93H59.95l-1.13,5.38
				c16.78,3.65,35.85,9.53,47.39,15.8c7.07,3.84,9.09,7.19,11.41,16.31l38.3,148.21h50.78l77.83-185.71H234.08z M305.16,135.51
				l-39.74,185.71h48.04l39.73-185.71H305.16z M580.59,185.68l14.55,69.73H555.3L580.59,185.68z M573.55,135.51
				c-9.23,0-17,5.36-20.45,13.62l-72.09,172.09h50.44l10.02-27.75h61.62l5.81,27.75h44.43l-38.78-185.71H573.55z M366.27,193.49
				c-0.31,26.75,23.85,41.65,42.06,50.55c18.71,9.1,24.98,14.94,24.91,23.08c-0.14,12.46-14.93,17.96-28.76,18.17
				c-24.15,0.38-38.17-6.53-49.34-11.73l-8.7,40.69c11.21,5.15,31.94,9.64,53.42,9.87c50.47,0,83.48-24.92,83.63-63.54
				c0.21-49.01-67.77-51.71-67.3-73.61c0.15-6.66,6.49-13.74,20.38-15.56c6.88-0.89,25.86-1.59,47.36,8.31l8.44-39.38
				c-11.57-4.2-26.43-8.23-44.95-8.23C399.96,132.11,366.54,157.35,366.27,193.49"/>
		</defs>
		<clipPath id="SVGID_00000145738339387982018460000001360982532970394547_">
			<use xlink:href="#SVGID_1_"  style="overflow:visible;"/>
		</clipPath>
		
			<linearGradient id="XMLID_00000042738217030620394130000011341312621978895022_" gradientUnits="userSpaceOnUse" x1="47.923" y1="623.9762" x2="52.621" y2="623.9762" gradientTransform="matrix(126.5456 0 0 -126.5456 -6005.6177 79189.5312)">
			<stop  offset="0" style="stop-color:#241F5D"/>
			<stop  offset="1" style="stop-color:#034EA1"/>
		</linearGradient>
		
			<rect id="XMLID_6_" x="58.82" y="132.11" style="clip-path:url(#SVGID_00000145738339387982018460000001360982532970394547_);fill:url(#XMLID_00000042738217030620394130000011341312621978895022_);" width="594.52" height="192"/>
	</g>
	<rect class="st1" width="712.15" height="456.22"/>
</g>
</svg>
